# xmcd
#
# Track frame offsets: 
#        150
#        37687
#        59627
#        81747
#        96982
#        109132
#        151485
#        187322
#        200105
#        227682
#
# Disc length: 3266 seconds
#
# Revision: 3
# Processed by: cddbd v1.5.1PL0 Copyright (c) Steve Scherf et al.
# Submitted via: ExactAudioCopy v0.95b2
#
DISCID=910cc00a
DTITLE=Various Artist - BestSellersJazz-JAZZ PIANO
DYEAR=1900
DGENRE=Jazz
TTITLE0=RED GARLAND - C JAM BLUES
TTITLE1=RAY BRYANT - GOLDEN EARRINGS
TTITLE2=BILL EVANS - MY FOOLISH HEART
TTITLE3=BUD POWELL - BODY AND SOUL
TTITLE4=OSCAR PETERSON - THE DAYS OF WINE AND ROSES
TTITLE5=SONNY CLARK - COOL STRUTTIN
TTITLE6=HERBIE HANCOCK - MAIDEN VOYAGE
TTITLE7=KENNY DREW - IT MIGHT AS WELL BE SPRING
TTITLE8=WYNTON KELLY - WILLOW WEEP FOR ME
TTITLE9=THELONIOUS MONK - APRIL IN PARIS
EXTD=
EXTT0=
EXTT1=
EXTT2=
EXTT3=
EXTT4=
EXTT5=
EXTT6=
EXTT7=
EXTT8=
EXTT9=
PLAYORDER=
